<svg width="384" height="512" viewBox="0 0 384 512" fill="none" xmlns="http://www.w3.org/2000/svg">
<g clip-path="url(#clip0_225_44)">
<path d="M64 0C28.7 0 0 28.7 0 64V448C0 483.3 28.7 512 64 512H320C355.3 512 384 483.3 384 448V160H256C238.3 160 224 145.7 224 128V0H64ZM256 0V128H384L256 0ZM80 64H144C152.8 64 160 71.2 160 80C160 88.8 152.8 96 144 96H80C71.2 96 64 88.8 64 80C64 71.2 71.2 64 80 64ZM80 128H144C152.8 128 160 135.2 160 144C160 152.8 152.8 160 144 160H80C71.2 160 64 152.8 64 144C64 135.2 71.2 128 80 128ZM96 224H288C305.7 224 320 238.3 320 256V320C320 337.7 305.7 352 288 352H96C78.3 352 64 337.7 64 320V256C64 238.3 78.3 224 96 224ZM96 256V320H288V256H96ZM240 416H304C312.8 416 320 423.2 320 432C320 440.8 312.8 448 304 448H240C231.2 448 224 440.8 224 432C224 423.2 231.2 416 240 416Z" fill="#5C40CC"/>
</g>
<defs>
<clipPath id="clip0_225_44">
<rect width="384" height="512" fill="white"/>
</clipPath>
</defs>
</svg>
