<svg width="20" height="20" viewBox="0 0 20 20" fill="none" xmlns="http://www.w3.org/2000/svg">
<path d="M19.3744 9.37472H11.4579C11.1129 9.37472 10.8329 9.09473 10.8329 8.74974C10.8329 8.40475 11.1129 8.12476 11.4579 8.12476H19.3744C19.7194 8.12476 19.9994 8.40475 19.9994 8.74974C19.9994 9.09473 19.7194 9.37472 19.3744 9.37472Z" fill="#E83B3B"/>
<path d="M16.2495 12.4995C16.0895 12.4995 15.9296 12.4387 15.8078 12.3163C15.5637 12.072 15.5637 11.6762 15.8078 11.4321L18.4911 8.7489L15.8078 6.06557C15.5637 5.82144 15.5637 5.42564 15.8078 5.18151C16.0521 4.93722 16.4479 4.93722 16.692 5.18151L19.8169 8.30641C20.0611 8.55054 20.0611 8.94634 19.8169 9.19048L16.692 12.3154C16.5695 12.4387 16.4096 12.4995 16.2495 12.4995Z" fill="#E83B3B"/>
<path d="M6.66651 19.9994C6.48814 19.9994 6.31893 19.9744 6.14987 19.9219L1.13491 18.2511C0.452562 18.0128 0 17.3769 0 16.6662V1.66667C0 0.747505 0.747505 0 1.66667 0C1.84488 0 2.0141 0.0250237 2.18331 0.0775123L7.19811 1.7483C7.88062 1.98663 8.33303 2.62245 8.33303 3.33318V18.3327C8.33303 19.2519 7.58568 19.9994 6.66651 19.9994ZM1.66667 1.24996C1.43749 1.24996 1.24996 1.43749 1.24996 1.66667V16.6662C1.24996 16.8437 1.36913 17.0086 1.53911 17.0678L6.53056 18.7311C6.56642 18.7427 6.61311 18.7494 6.66651 18.7494C6.89569 18.7494 7.08307 18.5619 7.08307 18.3327V3.33318C7.08307 3.15573 6.9639 2.99078 6.79392 2.93158L1.80247 1.26827C1.76661 1.25668 1.71992 1.24996 1.66667 1.24996Z" fill="#E83B3B"/>
<path d="M12.7079 6.66651C12.3629 6.66651 12.0829 6.38652 12.0829 6.04153V2.29165C12.0829 1.71748 11.6156 1.24996 11.0414 1.24996H1.66667C1.32168 1.24996 1.04169 0.969972 1.04169 0.624981C1.04169 0.27999 1.32168 0 1.66667 0H11.0414C12.3055 0 13.3329 1.0275 13.3329 2.29165V6.04153C13.3329 6.38652 13.0529 6.66651 12.7079 6.66651Z" fill="#E83B3B"/>
<path d="M11.0414 17.4995H7.70805C7.36306 17.4995 7.08307 17.2195 7.08307 16.8745C7.08307 16.5296 7.36306 16.2496 7.70805 16.2496H11.0414C11.6156 16.2496 12.0829 15.782 12.0829 15.2079V11.458C12.0829 11.113 12.3629 10.833 12.7079 10.833C13.0529 10.833 13.3329 11.113 13.3329 11.458V15.2079C13.3329 16.472 12.3055 17.4995 11.0414 17.4995Z" fill="#E83B3B"/>
</svg>
