<svg width="80" height="75" viewBox="0 0 80 75" fill="none" xmlns="http://www.w3.org/2000/svg">
<path fill-rule="evenodd" clip-rule="evenodd" d="M75 8.33333V17.8333C77.4583 19.2917 79.1667 21.9167 79.1667 25V50C79.1667 53.0833 77.4583 55.7083 75 57.1667V66.6667C75 71.25 71.25 75 66.6667 75H8.33333C3.70833 75 0 71.25 0 66.6667V8.33333C0 3.75 3.70833 0 8.33333 0H66.6667C71.25 0 75 3.75 75 8.33333ZM41.6667 50H70.8333V25H41.6667V50ZM8.33333 66.6667V8.33333H66.6667V16.6667H41.6667C37.0833 16.6667 33.3333 20.4167 33.3333 25V50C33.3333 54.5833 37.0833 58.3333 41.6667 58.3333H66.6667V66.6667H8.33333ZM47.9167 37.5C47.9167 34.0482 50.7149 31.25 54.1667 31.25C57.6184 31.25 60.4167 34.0482 60.4167 37.5C60.4167 40.9518 57.6184 43.75 54.1667 43.75C50.7149 43.75 47.9167 40.9518 47.9167 37.5Z" fill="white"/>
</svg>
