<svg width="576" height="384" viewBox="0 0 576 384" fill="none" xmlns="http://www.w3.org/2000/svg">
<path d="M64 0C28.7 0 0 28.7 0 64V144C26.5 144 48 165.5 48 192C48 218.5 26.5 240 0 240V320C0 355.3 28.7 384 64 384H512C547.3 384 576 355.3 576 320V240C549.5 240 528 218.5 528 192C528 165.5 549.5 144 576 144V64C576 28.7 547.3 0 512 0H64ZM128 96V288H448V96H128ZM96 96C96 78.3 110.3 64 128 64H448C465.7 64 480 78.3 480 96V288C480 305.7 465.7 320 448 320H128C110.3 320 96 305.7 96 288V96Z" fill="#5C40CC"/>
</svg>
