<svg width="640" height="512" viewBox="0 0 640 512" fill="none" xmlns="http://www.w3.org/2000/svg">
<g clip-path="url(#clip0_225_46)">
<path d="M36.8 192H603.2C623.5 192 640 175.5 640 155.2C640 147.9 637.8 140.8 633.8 134.8L558.2 21.4C549.3 8 534.4 0 518.3 0H121.7C105.7 0 90.7 8 81.8 21.4L6.2 134.7C2.2 140.8 0 147.9 0 155.1C0 175.5 16.5 192 36.8 192ZM64 224V384V464C64 490.5 85.5 512 112 512H336C362.5 512 384 490.5 384 464V384V224H320V384H128V224H64ZM512 224V480C512 497.7 526.3 512 544 512C561.7 512 576 497.7 576 480V224H512Z" fill="#5C40CC"/>
</g>
<defs>
<clipPath id="clip0_225_46">
<rect width="640" height="512" fill="white"/>
</clipPath>
</defs>
</svg>
